<?xml version="1.0" encoding="UTF-8"?>
<svg width="22px" height="16px" viewBox="0 0 22 16" version="1.1" xmlns="http://www.w3.org/2000/svg" xmlns:xlink="http://www.w3.org/1999/xlink">
    <!-- Generator: Sketch 49.2 (51160) - http://www.bohemiancoding.com/sketch -->
    <title>Group</title>
    <desc>Created with Sketch.</desc>
    <defs></defs>
    <g id="Symbols" stroke="none" stroke-width="1" fill="none" fill-rule="evenodd">
        <g id="Documenten-op-pagina" transform="translate(-513.000000, 0.000000)" fill="#714688">
            <g id="Group" transform="translate(513.000000, 0.000000)">
                <path d="M21.3750255,11.4113733 C21.3750255,13.7738842 19.4601794,15.6906383 17.1000204,15.6906383 L4.98750595,15.6906383 C2.23769798,15.6906383 0,13.4507106 0,10.6981625 C0,8.75912054 1.1244154,6.9983813 2.87226905,6.18487519 C2.86113622,6.0177164 2.8500034,5.86170153 2.8500034,5.70568666 C2.8500034,2.55195751 5.3994205,0 8.55001019,0 C10.865638,0 12.9474764,1.40413383 13.8269696,3.54376633 C14.3390796,3.09800956 14.9959163,2.85284333 15.6750187,2.85284333 C17.2447471,2.85284333 18.5250221,4.13439405 18.5250221,5.70568666 C18.5250221,6.25173871 18.3691625,6.78664683 18.0685762,7.24354752 C20.0056879,7.70044821 21.3750255,9.4277557 21.3750255,11.4113733 Z M14.250017,8.91513541 C14.250017,8.71454487 14.0941574,8.55853 13.8937666,8.55853 L11.4000136,8.55853 L11.4000136,4.63587041 C11.4000136,4.44642379 11.2330212,4.279265 11.0437632,4.279265 L8.90626062,4.279265 C8.71700258,4.279265 8.55001019,4.44642379 8.55001019,4.63587041 L8.55001019,8.55853 L6.05625722,8.55853 C5.85586636,8.55853 5.70000679,8.72568878 5.70000679,8.91513541 C5.70000679,9.00428677 5.73340527,9.10458204 5.80020223,9.17144556 L9.7189569,13.0941051 C9.78575385,13.1609687 9.87481646,13.1944004 9.97501189,13.1944004 C10.0640745,13.1944004 10.1642699,13.1609687 10.2310669,13.0941051 L14.1386887,9.18258947 C14.2054857,9.10458204 14.250017,9.01543069 14.250017,8.91513541 Z" id="Icons/Cloud-download"></path>
            </g>
        </g>
    </g>
</svg>