<?xml version="1.0" encoding="UTF-8"?>
<svg width="26px" height="30px" viewBox="0 0 26 30" version="1.1" xmlns="http://www.w3.org/2000/svg" xmlns:xlink="http://www.w3.org/1999/xlink">
    <!-- Generator: Sketch 49.2 (51160) - http://www.bohemiancoding.com/sketch -->
    <title>Group</title>
    <desc>Created with Sketch.</desc>
    <defs></defs>
    <g id="Symbols" stroke="none" stroke-width="1" fill="none" fill-rule="evenodd">
        <g id="USPS" transform="translate(-167.000000, -25.000000)" fill="#FFFFFF" fill-rule="nonzero">
            <g id="Group" transform="translate(167.000000, 25.000000)">
                <path d="M24.8803828,6.65788655 L14.1196172,0.309484595 C13.4354067,-0.103161532 12.5645933,-0.103161532 11.8803828,0.309484595 L1.11961722,6.65788655 C0.435406699,7.07053268 0,7.83234092 0,8.62589116 L0,21.3226951 C0,22.1479873 0.435406699,22.9097956 1.11961722,23.2906997 L11.8803828,29.6391016 C12.222488,29.8295537 12.5956938,29.9565217 13,29.9565217 C13.4043062,29.9565217 13.777512,29.8612957 14.1196172,29.6391016 L24.8803828,23.2906997 C25.5645933,22.8780536 26,22.1162453 26,21.3226951 L26,8.62589116 C26,7.83234092 25.5645933,7.07053268 24.8803828,6.65788655 Z M11.5382775,19.4816585 L7.24641148,15.1012612 L8.83253589,13.4824187 L11.5382775,16.2439735 L17.1674641,10.4986697 L18.7535885,12.1175122 L11.5382775,19.4816585 Z" id="Shape"></path>
            </g>
        </g>
    </g>
</svg>